<?xml version="1.0" standalone="no"?>
<!DOCTYPE svg PUBLIC "-//W3C//DTD SVG 20010904//EN"
 "http://www.w3.org/TR/2001/REC-SVG-20010904/DTD/svg10.dtd">
<svg version="1.0" xmlns="http://www.w3.org/2000/svg"
 width="626.000000pt" height="208.000000pt" viewBox="0 0 626.000000 208.000000"
 preserveAspectRatio="xMidYMid meet">

<g transform="translate(0.000000,208.000000) scale(0.100000,-0.100000)"
fill="#000000" stroke="none">
<path d="M3690 1755 c-14 -8 -35 -14 -48 -15 -27 0 -29 -6 -34 -88 -4 -54 -2
-62 11 -56 9 4 37 14 64 23 l47 15 0 68 c0 37 -3 68 -7 68 -5 -1 -19 -7 -33
-15z"/>
<path d="M1510 1725 c-14 -8 -32 -15 -40 -15 -39 -1 -43 -17 -16 -53 l27 -36
-3 -320 c-3 -283 -1 -318 12 -307 8 7 23 16 32 19 15 5 16 28 11 264 -3 142
-3 255 0 252 13 -11 190 -328 243 -434 l56 -111 61 21 62 20 -8 135 c-5 74 -6
232 -2 351 l6 217 -35 -16 c-33 -15 -34 -17 -31 -61 10 -105 14 -346 8 -440
l-6 -101 -45 63 c-107 146 -217 347 -267 490 -15 42 -30 77 -34 77 -3 -1 -17
-7 -31 -15z"/>
<path d="M4510 1730 c-8 -6 -34 -15 -58 -21 -34 -9 -42 -15 -36 -28 11 -25 16
-537 7 -623 -8 -70 -4 -94 11 -69 4 5 28 15 55 22 l48 12 -7 36 c-5 20 -11
118 -15 218 -6 159 -5 184 8 189 9 3 48 -5 89 -18 52 -17 84 -34 114 -63 37
-35 43 -47 49 -99 7 -56 2 -186 -11 -267 l-6 -37 62 22 61 21 -5 40 c-3 22 -8
87 -12 145 -9 140 -30 195 -98 257 -29 27 -71 56 -94 65 -40 16 -41 16 -98
-19 l-57 -34 6 108 c4 59 9 118 13 131 7 24 -2 28 -26 12z"/>
<path d="M2255 1518 l-48 -30 75 -30 c76 -29 156 -88 159 -118 5 -51 -29 -98
-100 -136 l-46 -25 40 6 c56 9 135 54 157 90 10 16 18 47 18 68 0 72 -44 123
-150 177 l-56 28 -49 -30z"/>
<path d="M2812 1516 c-28 -17 -52 -34 -52 -37 0 -3 28 -14 63 -23 79 -22 152
-67 173 -108 15 -28 16 -55 11 -200 l-5 -167 31 14 c18 8 44 16 60 20 22 4 26
10 22 28 -3 12 -9 82 -14 155 -13 186 -49 259 -154 313 -75 39 -79 39 -135 5z"/>
<path d="M3125 1510 l-90 -39 50 -1 c73 0 170 -38 224 -86 l46 -42 0 -148 c0
-82 -4 -164 -8 -183 -6 -29 -5 -32 11 -25 9 4 38 14 65 23 33 10 46 20 42 29
-3 8 -9 73 -15 145 -5 73 -16 152 -25 176 -28 80 -86 138 -175 175 -34 14 -39
13 -125 -24z"/>
<path d="M4007 1515 l-48 -33 68 -21 c37 -11 82 -32 98 -45 l30 -24 38 21 c21
12 36 27 35 36 -2 8 -30 29 -63 47 -99 55 -103 56 -158 19z"/>
<path d="M2705 1521 c-48 -17 -50 -20 -48 -52 6 -103 6 -382 0 -430 l-8 -56
61 20 c58 19 61 22 55 46 -12 52 -18 428 -7 460 13 36 13 35 -53 12z"/>
<path d="M3665 1520 l-50 -18 5 -74 c7 -107 6 -292 -2 -374 l-8 -71 60 21 60
21 -7 60 c-10 79 -10 347 0 408 5 26 5 46 0 46 -4 -1 -30 -10 -58 -19z"/>
<path d="M2152 1436 c-64 -73 -80 -212 -34 -302 25 -50 100 -120 155 -144 44
-20 48 -19 120 28 l38 25 -68 22 c-122 39 -157 65 -194 149 -18 41 -20 61 -16
112 3 34 13 79 22 100 8 20 14 39 11 41 -2 2 -17 -12 -34 -31z"/>
<path d="M3904 1434 c-33 -42 -39 -108 -15 -138 25 -30 90 -57 175 -72 107
-20 132 -30 146 -63 9 -22 8 -37 -4 -71 l-15 -42 34 32 c65 63 71 136 15 184
-28 23 -139 56 -192 56 -35 1 -105 36 -118 60 -8 16 -9 30 -1 52 16 44 7 45
-25 2z"/>
<path d="M3917 1132 c-20 -14 -37 -31 -37 -38 0 -17 75 -69 144 -99 l53 -24
52 35 c28 19 51 36 51 39 0 2 -19 9 -42 15 -76 19 -148 52 -166 75 l-17 22
-38 -25z"/>
<path d="M2440 1093 l0 -47 30 29 c17 16 30 32 30 36 0 4 -13 12 -30 18 l-30
10 0 -46z"/>
<path d="M458 352 c-14 -3 -16 -20 -16 -148 l0 -144 78 0 c62 0 79 3 84 16 9
24 8 24 -20 14 -14 -6 -43 -10 -65 -10 l-39 0 0 60 0 60 39 0 c26 0 41 5 45
16 9 24 8 24 -20 14 -56 -22 -63 -16 -66 58 -3 57 -6 67 -20 64z"/>
<path d="M500 354 c0 -7 60 -34 75 -34 8 0 15 9 15 19 0 16 -7 19 -45 19 -25
-1 -45 -3 -45 -4z"/>
<path d="M728 353 c-13 -3 -15 -12 -11 -37 3 -18 -2 -77 -11 -133 -19 -118
-18 -113 -7 -113 5 0 12 33 16 73 3 39 10 88 14 107 l8 35 22 -49 c12 -27 29
-77 38 -113 14 -57 18 -63 37 -57 25 8 36 22 36 47 0 10 14 55 32 100 36 95
42 90 53 -44 8 -97 14 -113 39 -103 12 5 16 13 11 28 -12 40 -35 191 -35 229
0 20 -3 37 -6 37 -19 0 -42 -24 -47 -49 -10 -48 -68 -191 -78 -191 -4 0 -26
54 -46 120 -21 66 -40 119 -43 119 -3 -1 -13 -3 -22 -6z"/>
<path d="M1123 350 c-13 -5 -23 -18 -23 -29 0 -18 2 -19 28 -5 32 16 85 18
113 4 23 -13 49 -61 49 -93 0 -13 -9 -36 -21 -51 -16 -21 -29 -26 -64 -26 -52
0 -57 10 -48 87 6 51 4 56 -11 50 -10 -4 -20 -7 -22 -7 -2 0 -4 -49 -4 -109 0
-104 1 -109 20 -104 15 4 20 14 20 40 0 35 0 35 35 29 66 -13 125 38 125 107
0 45 -22 83 -61 103 -31 16 -102 18 -136 4z"/>
<path d="M1512 351 c-10 -6 -4 -13 24 -27 21 -11 49 -35 62 -54 20 -30 23 -45
20 -97 -2 -35 -3 -63 -1 -63 1 0 9 13 18 30 32 62 11 149 -47 194 -37 27 -54
31 -76 17z"/>
<path d="M1747 353 c-10 -3 -17 -8 -15 -11 36 -69 98 -239 98 -269 0 -10 6
-13 16 -9 9 3 20 6 25 6 5 0 14 20 20 45 13 52 25 51 34 -5 8 -45 13 -51 42
-44 15 4 23 17 28 42 4 21 24 82 45 136 22 55 37 102 35 105 -9 9 -21 -13 -45
-79 -12 -36 -32 -87 -43 -114 l-21 -49 -17 39 c-24 54 -23 85 6 150 29 66 29
65 11 58 -8 -3 -23 -29 -32 -57 l-18 -52 -16 55 c-18 57 -26 65 -49 51 -12 -8
-10 -17 9 -57 40 -86 41 -92 24 -134 -9 -22 -20 -40 -25 -40 -5 0 -26 54 -46
120 -21 66 -40 119 -43 119 -3 -1 -13 -3 -23 -6z"/>
<path d="M2192 351 c-10 -6 -14 -45 -15 -149 l-2 -142 83 0 c66 0 82 3 82 15
0 12 -11 14 -58 9 l-59 -7 -6 39 c-14 80 -12 84 37 84 36 0 45 4 49 21 4 16 2
19 -11 13 -9 -4 -32 -9 -51 -12 l-34 -5 7 72 c7 70 4 79 -22 62z"/>
<path d="M2246 349 c2 -4 18 -12 35 -19 26 -11 32 -11 40 1 15 24 10 28 -35
26 -24 -1 -42 -5 -40 -8z"/>
<path d="M2450 340 c-30 -30 -25 -43 10 -25 56 29 128 14 149 -32 16 -34 14
-85 -5 -111 -13 -19 -23 -23 -62 -20 l-47 3 0 68 c0 52 -3 66 -13 62 -8 -3
-17 -5 -20 -5 -4 0 -7 -50 -7 -110 0 -88 3 -109 13 -105 8 3 17 5 22 5 5 0 6
16 3 35 l-6 35 46 -2 c44 -2 47 -5 62 -40 15 -40 21 -43 43 -29 11 6 10 14 -6
41 l-20 32 24 35 c28 41 30 72 9 117 -21 44 -63 66 -124 66 -38 0 -56 -5 -71
-20z"/>
<path d="M2923 352 c-10 -6 2 -34 43 -108 48 -87 55 -104 51 -142 -4 -35 -2
-42 10 -38 8 3 19 6 24 6 5 0 7 17 3 38 -5 33 1 53 46 141 28 57 46 101 40 99
-7 -2 -22 -29 -35 -59 -12 -30 -30 -68 -40 -83 -18 -27 -19 -27 -33 -10 -8 11
-30 52 -49 92 -34 73 -38 78 -60 64z"/>
<path d="M3325 350 c-3 -5 13 -19 35 -30 56 -29 85 -91 76 -164 -6 -47 -6 -50
8 -30 44 61 20 174 -46 214 -36 22 -63 26 -73 10z"/>
<path d="M3591 351 c-10 -7 -13 -34 -12 -117 2 -119 11 -143 60 -168 24 -13
31 -13 47 -1 18 13 17 14 -12 25 -48 17 -59 49 -58 167 1 57 -2 103 -5 103 -3
0 -12 -4 -20 -9z"/>
<path d="M3760 354 c-12 -4 -15 -27 -15 -129 0 -120 1 -124 17 -102 13 17 18
42 18 107 0 47 3 95 6 108 6 22 3 24 -26 16z"/>
<path d="M3910 340 c-30 -30 -25 -43 10 -25 107 55 207 -44 144 -143 -13 -20
-22 -23 -62 -20 l-47 3 1 68 c0 55 -2 67 -14 62 -7 -3 -17 -5 -20 -5 -4 0 -7
-50 -7 -110 0 -88 3 -109 13 -105 8 3 18 5 23 5 6 0 7 15 3 35 l-6 35 48 -3
c44 -3 48 -5 59 -37 7 -19 17 -35 23 -34 42 4 42 3 17 41 l-25 36 20 22 c46
49 31 142 -29 178 -42 24 -125 23 -151 -3z"/>
<path d="M4383 352 c-9 -6 -4 -28 22 -87 19 -44 41 -107 49 -139 18 -69 17
-67 41 -60 15 4 29 33 56 112 20 59 43 124 53 145 17 38 16 38 -4 27 -11 -6
-20 -17 -20 -24 0 -22 -72 -206 -81 -206 -8 0 -29 52 -62 159 -23 75 -32 87
-54 73z"/>
<path d="M4728 352 c-16 -3 -18 -18 -18 -148 0 -79 3 -144 8 -144 29 1 33 20
30 156 -3 126 -5 139 -20 136z"/>
<path d="M4942 351 c-10 -6 -5 -11 17 -21 17 -6 35 -18 42 -26 8 -10 16 -11
31 -3 19 10 18 12 -13 35 -34 25 -55 29 -77 15z"/>
<path d="M5200 354 c-12 -4 -15 -29 -15 -149 0 -117 3 -144 13 -140 8 3 17 5
20 5 4 0 7 65 7 145 0 80 -2 144 -5 144 -3 -1 -12 -3 -20 -5z"/>
<path d="M5422 351 c-10 -6 -5 -11 16 -20 16 -7 43 -26 58 -42 27 -28 29 -36
29 -105 0 -74 0 -75 19 -52 14 18 17 35 14 87 -4 59 -7 66 -46 102 -41 39 -65
47 -90 30z"/>
<path d="M5676 351 c-14 -5 -16 -10 -8 -15 8 -5 12 -49 12 -142 0 -88 4 -133
10 -129 6 3 10 51 10 108 1 119 1 119 77 -23 26 -47 47 -86 48 -87 0 -1 11 0
23 4 21 5 22 9 22 144 0 86 -4 139 -10 139 -6 0 -10 -48 -10 -122 l-1 -123
-25 30 c-13 17 -46 74 -72 127 -26 53 -49 97 -52 97 -3 0 -14 -4 -24 -8z"/>
<path d="M4887 307 c-20 -52 -10 -67 66 -101 76 -35 92 -48 99 -81 4 -19 4
-19 16 3 22 39 5 62 -66 94 -97 43 -97 43 -102 74 -5 24 -7 26 -13 11z"/>
<path d="M3256 276 c-32 -68 -16 -139 44 -190 33 -27 55 -32 78 -17 10 6 4 13
-24 27 -21 11 -49 35 -62 54 -20 30 -23 45 -20 98 2 34 3 62 2 62 -1 0 -9 -15
-18 -34z"/>
<path d="M5355 280 c-21 -41 -19 -116 4 -154 27 -42 75 -70 109 -61 26 6 26 7
-19 31 -60 33 -81 71 -80 140 0 30 3 59 6 64 3 6 4 10 1 10 -3 0 -12 -13 -21
-30z"/>
<path d="M1434 265 c-19 -45 -18 -71 5 -121 20 -44 67 -84 99 -84 38 0 33 19
-8 40 -55 28 -85 91 -75 156 8 53 -1 57 -21 9z"/>
<path d="M4878 128 c-10 -6 -6 -15 15 -33 34 -30 71 -41 99 -28 18 8 13 12
-41 39 -38 19 -65 27 -73 22z"/>
</g>
</svg>
