<?xml version="1.0" encoding="UTF-8"?>
<svg version="1.1" xmlns="http://www.w3.org/2000/svg" width="266" height="265">
<path d="M0 0 C0.67125916 0.00215515 1.34251831 0.0043103 2.03411865 0.00653076 C38.31179647 0.19220687 74.94791433 11.5211428 102.8125 35.3125 C104.28589844 36.46105469 104.28589844 36.46105469 105.7890625 37.6328125 C107.28566406 38.80457031 107.28566406 38.80457031 108.8125 40 C110.17375 41.05767578 110.17375 41.05767578 111.5625 42.13671875 C113.98585422 44.48013594 114.91275668 46.08884822 115.8125 49.3125 C115.73668745 53.55800286 115.48428285 55.58940041 112.5625 58.734375 C111.655 59.58515625 110.7475 60.4359375 109.8125 61.3125 C109.01972656 62.09109375 108.22695312 62.8696875 107.41015625 63.671875 C100.3924852 70.28946311 93.01857941 75.30950111 84.8125 80.3125 C84.02875 80.84488281 83.245 81.37726563 82.4375 81.92578125 C52.06751075 102.04589913 6.10706816 107.33407548 -29.125 100.6875 C-32.50650233 99.98862439 -35.84697876 99.18540334 -39.1875 98.3125 C-40.04327637 98.09287598 -40.89905273 97.87325195 -41.78076172 97.64697266 C-69.17007299 90.43872218 -92.87977893 77.14879183 -113.1875 57.3125 C-114.84418263 53.99913474 -114.92363743 50.86735168 -114.1875 47.3125 C-101.14703291 25.26068024 -66.34905779 11.48885546 -42.67675781 5.2175293 C-41.83467773 5.00136963 -40.99259766 4.78520996 -40.125 4.5625 C-38.97596191 4.26436401 -38.97596191 4.26436401 -37.80371094 3.96020508 C-25.33834051 0.92453606 -12.79940175 -0.05662736 0 0 Z M-31.21875 22.12109375 C-39.35446168 31.17691567 -42.89599803 42.10317489 -42.53515625 54.19921875 C-41.09474676 67.09816662 -35.52413532 77.22505716 -25.671875 85.5234375 C-15.58550214 92.78689469 -4.49336536 95.10026743 7.71484375 93.84375 C12.25372128 93.06532964 15.8328462 91.5885585 19.8125 89.3125 C20.73160156 88.80460937 21.65070313 88.29671875 22.59765625 87.7734375 C33.71456968 81.21999459 38.77825898 72.41522306 42.8125 60.3125 C43.60133536 49.32515028 43.42673951 40.10877506 37.8125 30.3125 C37.3278125 29.43078125 36.843125 28.5490625 36.34375 27.640625 C30.9142883 18.85767224 22.05009886 12.53935176 12.08203125 9.7734375 C-4.29121291 6.44806261 -18.99642279 10.45231397 -31.21875 22.12109375 Z " fill="#22478A" transform="translate(132.1875,80.6875)"/>
<path d="M0 0 C1.26465088 -0.00524185 2.52930176 -0.0104837 3.83227539 -0.0158844 C6.50210881 -0.0222987 9.17108453 -0.02242081 11.84082031 -0.01245117 C15.25053765 -0.00095454 18.65922038 -0.02119409 22.06880188 -0.05036831 C25.33753938 -0.07319254 28.60620152 -0.0662614 31.875 -0.0625 C33.09388916 -0.07373398 34.31277832 -0.08496796 35.56860352 -0.09654236 C41.95308356 -0.0440688 46.13409518 0.02651116 50.9375 4.43359375 C53.53677406 7.85990956 53.50391131 11.25631034 52.9375 15.43359375 C51.40225669 18.33824219 49.57121784 20.4669906 46.9375 22.43359375 C43.36774323 23.37418723 39.95992628 23.25318122 36.2890625 23.1171875 C35.27653412 23.10728287 34.26400574 23.09737823 33.22079468 23.08717346 C29.99986393 23.04811596 26.78239321 22.96030812 23.5625 22.87109375 C21.37374728 22.83596882 19.18494092 22.80403189 16.99609375 22.77539062 C11.64205688 22.69838373 6.29002562 22.58138401 0.9375 22.43359375 C0.94797363 23.71000732 0.95844727 24.9864209 0.96923828 26.30151367 C1.00548281 31.04448636 1.02841677 35.78744684 1.04736328 40.53051758 C1.05741069 42.58197082 1.07105092 44.63340979 1.08837891 46.68481445 C1.11268246 49.63626637 1.12399582 52.58752865 1.1328125 55.5390625 C1.14313507 56.45382858 1.15345764 57.36859467 1.16409302 58.31108093 C1.1650883 63.98066422 0.71381643 67.97407869 -2.6875 72.68359375 C-5.99419651 75.12010697 -8.98301808 75.65300812 -13.0625 75.43359375 C-16.28144184 74.00295293 -18.85521387 72.19270141 -21.0625 69.43359375 C-22.08086004 66.27721924 -22.19981625 63.34520648 -22.22363281 60.04174805 C-22.23324036 58.96350266 -22.2428479 57.88525726 -22.25274658 56.77433777 C-22.25699646 55.61388443 -22.26124634 54.45343109 -22.265625 53.2578125 C-22.27132507 52.05929153 -22.27702515 50.86077057 -22.28289795 49.62593079 C-22.292343 47.08990358 -22.29887996 44.55386413 -22.30273438 42.01782227 C-22.31243651 38.14642836 -22.34346417 34.27556613 -22.375 30.40429688 C-22.38153065 27.93880523 -22.38678088 25.4733098 -22.390625 23.0078125 C-22.4029718 21.85343185 -22.4153186 20.69905121 -22.42803955 19.50968933 C-22.4113103 13.44643095 -22.37858343 8.62206816 -19.0625 3.43359375 C-13.67293272 -0.9088037 -6.58511158 -0.01585994 0 0 Z " fill="#234889" transform="translate(27.0625,3.56640625)"/>
<path d="M0 0 C1.36711243 -0.00404711 2.73422063 -0.00987468 4.10131836 -0.01739502 C6.95956737 -0.02621639 9.81668749 -0.0134668 12.67480469 0.01464844 C16.32718253 0.04883797 19.97691526 0.02914106 23.62919617 -0.00678635 C26.45019232 -0.02853438 29.27056775 -0.02153786 32.09158325 -0.00601959 C34.08898652 -0.00010661 36.08641453 -0.01823517 38.08374023 -0.0368042 C48.17525562 0.11945088 48.17525562 0.11945088 51.87109375 3.59667969 C54.85403887 7.95278983 55.186185 10.99387566 55.22363281 16.20458984 C55.23324036 17.28606293 55.2428479 18.36753601 55.25274658 19.48178101 C55.25699646 20.6453714 55.26124634 21.80896179 55.265625 23.0078125 C55.27132507 24.20870514 55.27702515 25.40959778 55.28289795 26.6468811 C55.29234231 29.18710449 55.29887969 31.7273401 55.30273438 34.26757812 C55.31244518 38.14995703 55.343477 42.0318077 55.375 45.9140625 C55.38152975 48.38280936 55.38678033 50.85156 55.390625 53.3203125 C55.4029718 54.47985443 55.4153186 55.63939636 55.42803955 56.83407593 C55.4094251 63.58106368 55.02162844 68.38249603 50.4375 73.671875 C46.68916215 75.44740346 43.1268668 75.45007681 39.0625 74.796875 C34.94974025 72.43422578 33.3931277 70.27680205 32.0625 65.796875 C31.79509686 62.49640134 31.82984328 59.21171604 31.8671875 55.90234375 C31.8700174 54.95498856 31.87284729 54.00763336 31.87576294 53.03157043 C31.88692813 50.01570834 31.91202611 47.00014684 31.9375 43.984375 C31.94753453 41.93555117 31.95665955 39.88672268 31.96484375 37.83789062 C31.98685551 32.82410352 32.02136029 27.81054017 32.0625 22.796875 C30.11029541 22.8282959 30.11029541 22.8282959 28.11865234 22.86035156 C23.27696797 22.93290693 18.4353314 22.97873147 13.59326172 23.01660156 C11.50008047 23.03668159 9.40695508 23.0639514 7.31396484 23.09863281 C4.30031531 23.14730934 1.28740927 23.16988012 -1.7265625 23.1875 C-2.65804108 23.20814514 -3.58951965 23.22879028 -4.54922485 23.25006104 C-10.18670799 23.2519955 -13.51129954 22.64687854 -17.9375 18.796875 C-19.92587755 15.81430868 -20.29609032 14.89588364 -20.4375 11.484375 C-20.4890625 10.74574219 -20.540625 10.00710938 -20.59375 9.24609375 C-17.86248332 -0.94738367 -8.69103347 -0.08080008 0 0 Z " fill="#234789" transform="translate(205.9375,4.203125)"/>
<path d="M0 0 C2.58297781 2.18991597 4.48415844 3.96831688 6 7 C6.10102227 8.79118267 6.13837757 10.58611095 6.14526367 12.38012695 C6.15164352 13.50502029 6.15802338 14.62991364 6.16459656 15.78889465 C6.16570938 17.00969223 6.1668222 18.23048981 6.16796875 19.48828125 C6.17296135 21.3640107 6.17296135 21.3640107 6.17805481 23.27763367 C6.18312623 25.92820787 6.18589467 28.5786796 6.18530273 31.22924805 C6.18520131 34.61869743 6.19883245 38.00793641 6.21607494 41.39733601 C6.22990081 44.63597649 6.22928471 47.87461526 6.23046875 51.11328125 C6.23765427 52.32800613 6.24483978 53.54273102 6.25224304 54.79426575 C6.24916641 55.92861557 6.24608978 57.06296539 6.24291992 58.23168945 C6.24434494 59.22715286 6.24576996 60.22261627 6.24723816 61.24824524 C5.78075412 66.44020138 3.95142766 69.6472735 0 73 C-3.08651254 74.02883751 -5.24219464 74.13876825 -8.4777832 74.16113281 C-9.59937332 74.17074036 -10.72096344 74.1803479 -11.87654114 74.19024658 C-13.69528999 74.1966214 -13.69528999 74.1966214 -15.55078125 74.203125 C-16.79748093 74.20882507 -18.0441806 74.21452515 -19.32865906 74.22039795 C-21.96906179 74.22985166 -24.60935076 74.23674653 -27.24975586 74.24023438 C-29.95301781 74.24462437 -32.65596153 74.25853566 -35.35913086 74.28125 C-39.25644633 74.31171079 -43.15336 74.32228257 -47.05078125 74.328125 C-48.25720779 74.3404718 -49.46363434 74.3528186 -50.70661926 74.36553955 C-61.42574154 74.33709763 -61.42574154 74.33709763 -66 71 C-68.09290216 67.42181243 -69.02054901 65.02745048 -68.9375 60.875 C-67.84951528 57.53851353 -66.39780977 55.54313158 -64 53 C-61.62609164 51.81304582 -60.19755049 51.87924167 -57.55029297 51.88647461 C-56.16908768 51.88658791 -56.16908768 51.88658791 -54.75997925 51.88670349 C-53.26617233 51.89444542 -53.26617233 51.89444542 -51.7421875 51.90234375 C-50.21490524 51.90446617 -50.21490524 51.90446617 -48.6567688 51.90663147 C-45.39614965 51.912241 -42.13559849 51.92479512 -38.875 51.9375 C-36.66796974 51.94251377 -34.46093841 51.94707689 -32.25390625 51.95117188 C-26.83591419 51.96221352 -21.41796195 51.97896095 -16 52 C-16.00888245 51.43481155 -16.01776489 50.86962311 -16.0269165 50.28730774 C-16.11548897 44.39875412 -16.17577513 38.51039008 -16.21972656 32.62133789 C-16.23982767 30.42431958 -16.26711306 28.22735468 -16.30175781 26.03051758 C-16.35034093 22.87047134 -16.37298405 19.71113313 -16.390625 16.55078125 C-16.41127014 15.57039383 -16.43191528 14.59000641 -16.45318604 13.57991028 C-16.45461914 9.21320429 -16.43848035 6.71688689 -14.12011719 2.92651367 C-9.5838711 -1.19549437 -5.90064853 -1.58053086 0 0 Z " fill="#234889" transform="translate(254,186)"/>
<path d="M0 0 C2.875 2.5 2.875 2.5 5 5 C5.33 5.33 5.66 5.66 6 6 C6.09295815 7.44289787 6.11746513 8.89029785 6.11352539 10.33618164 C6.11344986 11.2570607 6.11337433 12.17793976 6.11329651 13.12672424 C6.10813522 14.12775681 6.10297394 15.12878937 6.09765625 16.16015625 C6.0962413 17.17975937 6.09482635 18.19936249 6.09336853 19.24986267 C6.08775097 22.52077107 6.0751955 25.79161213 6.0625 29.0625 C6.05748726 31.27408756 6.05292396 33.48567618 6.04882812 35.69726562 C6.03777584 41.13153357 6.02102063 46.56576197 6 52 C6.84778267 51.98334541 6.84778267 51.98334541 7.71269226 51.96635437 C13.60118794 51.85563987 19.48938747 51.78028316 25.37866211 51.7253418 C27.5757244 51.70021491 29.77270324 51.66610754 31.96948242 51.62280273 C35.12960405 51.56207238 38.28861957 51.53377167 41.44921875 51.51171875 C42.91979988 51.47300911 42.91979988 51.47300911 44.42008972 51.43351746 C51.28563079 51.43070095 51.28563079 51.43070095 55.09692383 54.46801758 C55.72493896 55.30357178 56.3529541 56.13912598 57 57 C57.33 57.33 57.66 57.66 58 58 C58.56227527 62.65885221 58.64395504 65.83425368 55.84594727 69.71972656 C52.73963088 73.11295073 50.23347406 73.56511588 45.70678711 73.87402344 C43.1471759 73.90664778 40.58685097 73.89933301 38.02734375 73.859375 C36.65784063 73.85901085 35.28833501 73.86102283 33.9188385 73.86529541 C31.05619962 73.86658667 28.19510205 73.84372073 25.33276367 73.80273438 C21.67150349 73.75160771 18.01266145 73.75387055 14.35117245 73.77334213 C11.52591585 73.78365867 8.70121122 73.76919338 5.87603951 73.74695587 C3.87255231 73.73457709 1.86898008 73.74015597 -0.13453674 73.74603271 C-10.22163491 73.56257877 -10.22163491 73.56257877 -13.30249023 70.51660156 C-13.86266846 69.68612305 -14.42284668 68.85564453 -15 68 C-15.33 67.67 -15.66 67.34 -16 67 C-16.11488314 65.12465927 -16.15965779 63.24498718 -16.17700195 61.36621094 C-16.18983719 60.16115906 -16.20267242 58.95610718 -16.21589661 57.71453857 C-16.22328354 56.40108459 -16.23067047 55.08763062 -16.23828125 53.734375 C-16.24235678 53.06854652 -16.2464323 52.40271805 -16.25063133 51.71671295 C-16.27151378 48.19021411 -16.28580399 44.66375439 -16.29516602 41.13720703 C-16.306214 37.49755501 -16.34058781 33.85851718 -16.38033772 30.21908188 C-16.40651744 27.41889326 -16.41485915 24.61885035 -16.41844749 21.81855011 C-16.4256755 19.82602735 -16.4521136 17.83360422 -16.47883606 15.84124756 C-16.47591049 14.62358704 -16.47298492 13.40592651 -16.4699707 12.15136719 C-16.47583694 11.081828 -16.48170319 10.01228882 -16.48774719 8.91033936 C-15.87897478 5.27785444 -14.5267592 3.62987549 -12 1 C-7.84354426 -1.47140612 -4.61354699 -1.23577152 0 0 Z " fill="#23488A" transform="translate(21,186)"/>
<path d="M0 0 C4.81189868 4.67992678 8.52254612 8.97495272 9.3359375 15.83203125 C9.43984231 23.75996805 8.5816854 28.99833821 3.234375 34.97265625 C-1.81384148 39.81218661 -6.24113119 41.94981861 -13.22265625 42.0234375 C-20.32293904 41.56064034 -25.73103151 39.21854697 -30.8125 34.25 C-34.82322582 28.29120736 -37.17320702 22.3058801 -36 15 C-34.40963491 8.9036005 -32.15287864 4.02791299 -27.046875 0.1875 C-18.43691518 -4.8075912 -8.47410423 -5.71080937 0 0 Z " fill="#23488A" transform="translate(146,113)"/>
</svg>
